<?xml version="1.0" encoding="UTF-8"?>
<svg width="1178px" height="200px" viewBox="0 0 1178 200" version="1.1" xmlns="http://www.w3.org/2000/svg" xmlns:xlink="http://www.w3.org/1999/xlink">
    <!-- Generator: Sketch 52.6 (67491) - http://www.bohemiancoding.com/sketch -->
    <title>Artboard</title>
    <desc>Created with Sketch.</desc>
    <defs>
        <linearGradient x1="50%" y1="0%" x2="50%" y2="100%" id="linearGradient-1">
            <stop stop-color="#F88A36" offset="0%"></stop>
            <stop stop-color="#FD2020" offset="100%"></stop>
        </linearGradient>
    </defs>
    <g id="Artboard" stroke="none" stroke-width="1" fill="none" fill-rule="evenodd">
        <g id="Swift_logo" transform="translate(478.000000, 0.000000)" fill="url(#linearGradient-1)">
            <path d="M166.831083,186.162458 C140.777857,201.349783 104.955369,202.910201 68.9151655,187.322914 C39.7341007,174.794498 15.5214035,152.864137 0,127.807305 C7.45031834,134.071513 16.1421703,139.085133 25.4547891,143.467825 C62.6740027,161.071827 99.8854008,159.866305 126.072605,143.512891 C126.055858,143.495992 126.044693,143.484725 126.033528,143.467825 C88.7819367,114.647962 57.1183629,77.057081 33.5269908,46.3613354 C28.558065,41.3488424 24.8329058,35.0835078 21.1077466,29.4451573 C49.6669281,55.7582107 94.9912797,88.9607661 111.130101,98.3627113 C76.9879254,62.0224186 46.5636522,16.9167414 47.8029529,18.1673297 C101.818598,73.3002463 152.110759,104.626919 152.110759,104.626919 C153.774325,105.57331 155.058285,106.36197 156.091036,107.06613 C157.17961,104.272023 158.134207,101.370883 158.938078,98.3627113 C167.62993,66.4107442 157.698777,30.0704515 135.966356,0 C186.252934,30.6985622 216.057557,88.335472 203.636638,136.578886 C203.312857,137.880174 202.961164,139.164562 202.581558,140.426417 C202.726701,140.601049 202.871845,140.781314 203.016988,140.967212 C227.847661,172.293885 221.020342,205.49644 217.916508,199.232233 C204.446091,172.631882 179.509352,180.766339 166.831641,186.163022 L166.831083,186.162458 Z" id="Path"></path>
        </g>
    </g>
</svg>